<?xml version="1.0" standalone="no"?>
<!DOCTYPE svg PUBLIC "-//W3C//DTD SVG 20010904//EN"
 "http://www.w3.org/TR/2001/REC-SVG-20010904/DTD/svg10.dtd">
<svg version="1.0" xmlns="http://www.w3.org/2000/svg"
 width="72.000000pt" height="72.000000pt" viewBox="0 0 72.000000 72.000000"
 preserveAspectRatio="xMidYMid meet">
<metadata>
Created by potrace 1.11, written by Peter Selinger 2001-2013
</metadata>
<g transform="translate(0.000000,72.000000) scale(0.100000,-0.100000)"
fill="#000000" stroke="none">
<path d="M385 713 c-67 -17 -130 -81 -154 -156 -13 -39 -16 -185 -5 -244 l6
-32 -107 -3 c-139 -4 -140 -6 -100 -125 16 -48 37 -101 46 -118 l16 -30 306
-3 307 -2 0 81 c0 95 -16 131 -69 153 -29 12 -32 15 -13 15 32 1 39 29 40 161
1 126 -10 169 -52 225 -46 59 -151 97 -221 78z m166 -448 l34 -14 -31 -1 c-19
0 -34 6 -38 15 -7 18 -6 18 35 0z"/>
</g>
</svg>
